<mxfile host="65bd71144e">
    <diagram id="QmS3PArWWQofFNdtgQve" name="Page-1">
        <mxGraphModel dx="1017" dy="824" grid="1" gridSize="10" guides="1" tooltips="1" connect="1" arrows="1" fold="1" page="1" pageScale="1" pageWidth="850" pageHeight="1100" math="0" shadow="0">
            <root>
                <mxCell id="0"/>
                <mxCell id="1" parent="0"/>
                <mxCell id="483" value="" style="rounded=0;whiteSpace=wrap;html=1;fillColor=none;" parent="1" vertex="1">
                    <mxGeometry x="40" y="40" width="300" height="510" as="geometry"/>
                </mxCell>
                <mxCell id="388" style="edgeStyle=none;html=1;fontFamily=Courier New;startArrow=none;startFill=0;endArrow=classic;endFill=1;endSize=4;strokeWidth=1;" parent="1" source="398" target="406" edge="1">
                    <mxGeometry relative="1" as="geometry">
                        <mxPoint x="150" y="235" as="sourcePoint"/>
                        <mxPoint x="230" y="235" as="targetPoint"/>
                    </mxGeometry>
                </mxCell>
                <mxCell id="384" value="" style="group" parent="1" vertex="1" connectable="0">
                    <mxGeometry x="189.99666666666667" y="209" width="25.333333333333258" height="23" as="geometry"/>
                </mxCell>
                <mxCell id="385" value="Make&amp;nbsp; &amp;nbsp; &amp;nbsp;a&lt;br&gt;child of&amp;nbsp; &amp;nbsp; &amp;nbsp;" style="edgeLabel;html=1;align=center;verticalAlign=middle;resizable=0;points=[];" parent="384" vertex="1" connectable="0">
                    <mxGeometry y="11.499999999999886" as="geometry"/>
                </mxCell>
                <mxCell id="386" value="" style="ellipse;whiteSpace=wrap;html=1;aspect=fixed;fillColor=#1ba1e2;fontColor=#ffffff;strokeColor=#006EAF;" parent="384" vertex="1">
                    <mxGeometry x="6.3333333333332575" width="10" height="10" as="geometry"/>
                </mxCell>
                <mxCell id="387" value="" style="ellipse;whiteSpace=wrap;html=1;aspect=fixed;fillColor=#60a917;fontColor=#ffffff;strokeColor=#2D7600;" parent="384" vertex="1">
                    <mxGeometry x="15.333333333333258" y="13" width="10" height="10" as="geometry"/>
                </mxCell>
                <mxCell id="389" style="edgeStyle=none;html=1;fontFamily=Courier New;startArrow=none;startFill=0;endArrow=classic;endFill=1;endSize=4;strokeWidth=1;" parent="1" source="350" target="352" edge="1">
                    <mxGeometry relative="1" as="geometry"/>
                </mxCell>
                <mxCell id="383" value="" style="group" parent="1" vertex="1" connectable="0">
                    <mxGeometry x="189.99666666666667" y="109" width="25.333333333333258" height="23" as="geometry"/>
                </mxCell>
                <mxCell id="380" value="Make&amp;nbsp; &amp;nbsp; &amp;nbsp;a&lt;br&gt;child of&amp;nbsp; &amp;nbsp; &amp;nbsp;" style="edgeLabel;html=1;align=center;verticalAlign=middle;resizable=0;points=[];" parent="383" vertex="1" connectable="0">
                    <mxGeometry y="11.499999999999886" as="geometry"/>
                </mxCell>
                <mxCell id="381" value="" style="ellipse;whiteSpace=wrap;html=1;aspect=fixed;fillColor=#60a917;fontColor=#ffffff;strokeColor=#2D7600;" parent="383" vertex="1">
                    <mxGeometry x="6.3333333333332575" width="10" height="10" as="geometry"/>
                </mxCell>
                <mxCell id="382" value="" style="ellipse;whiteSpace=wrap;html=1;aspect=fixed;fillColor=#1ba1e2;fontColor=#ffffff;strokeColor=#006EAF;" parent="383" vertex="1">
                    <mxGeometry x="15.333333333333258" y="13" width="10" height="10" as="geometry"/>
                </mxCell>
                <mxCell id="390" value="" style="endArrow=none;html=1;endSize=4;strokeWidth=1;" parent="1" edge="1">
                    <mxGeometry width="50" height="50" relative="1" as="geometry">
                        <mxPoint x="320" y="330" as="sourcePoint"/>
                        <mxPoint x="60" y="330" as="targetPoint"/>
                    </mxGeometry>
                </mxCell>
                <mxCell id="394" value="Desired outcome" style="text;html=1;strokeColor=none;fillColor=none;align=center;verticalAlign=middle;whiteSpace=wrap;rounded=0;" parent="1" vertex="1">
                    <mxGeometry x="130" y="300" width="120" height="30" as="geometry"/>
                </mxCell>
                <mxCell id="395" value="&lt;font style=&quot;font-size: 10px&quot;&gt;Replica 2&lt;/font&gt;" style="text;html=1;strokeColor=none;fillColor=none;align=center;verticalAlign=middle;whiteSpace=wrap;rounded=0;" parent="1" vertex="1">
                    <mxGeometry x="160" y="233" width="60" height="27" as="geometry"/>
                </mxCell>
                <mxCell id="396" value="&lt;font style=&quot;font-size: 10px&quot;&gt;Replica 1&lt;/font&gt;" style="text;html=1;strokeColor=none;fillColor=none;align=center;verticalAlign=middle;whiteSpace=wrap;rounded=0;" parent="1" vertex="1">
                    <mxGeometry x="160" y="133" width="60" height="27" as="geometry"/>
                </mxCell>
                <mxCell id="462" value="" style="group" parent="1" vertex="1" connectable="0">
                    <mxGeometry x="60" y="90" width="90" height="90" as="geometry"/>
                </mxCell>
                <mxCell id="350" value="" style="whiteSpace=wrap;html=1;aspect=fixed;" parent="462" vertex="1">
                    <mxGeometry width="90" height="90" as="geometry"/>
                </mxCell>
                <mxCell id="289" value="" style="ellipse;whiteSpace=wrap;html=1;aspect=fixed;fillColor=#60a917;fontColor=#ffffff;strokeColor=#2D7600;" parent="462" vertex="1">
                    <mxGeometry x="15" y="50" width="20" height="20" as="geometry"/>
                </mxCell>
                <mxCell id="291" value="" style="ellipse;whiteSpace=wrap;html=1;aspect=fixed;fillColor=#1ba1e2;fontColor=#ffffff;strokeColor=#006EAF;" parent="462" vertex="1">
                    <mxGeometry x="55" y="50" width="20" height="20" as="geometry"/>
                </mxCell>
                <mxCell id="292" value="" style="ellipse;whiteSpace=wrap;html=1;aspect=fixed;" parent="462" vertex="1">
                    <mxGeometry x="35" y="20" width="20" height="20" as="geometry"/>
                </mxCell>
                <mxCell id="293" value="" style="endArrow=oval;html=1;endFill=1;endSize=5;startSize=5;" parent="462" source="292" target="289" edge="1">
                    <mxGeometry width="50" height="50" relative="1" as="geometry">
                        <mxPoint x="-145" y="-175" as="sourcePoint"/>
                        <mxPoint x="-115" y="-100" as="targetPoint"/>
                    </mxGeometry>
                </mxCell>
                <mxCell id="294" value="" style="endArrow=oval;html=1;endFill=1;endSize=5;startSize=5;" parent="462" source="292" target="291" edge="1">
                    <mxGeometry width="50" height="50" relative="1" as="geometry">
                        <mxPoint x="-101.44568508158966" y="-155.3048314603003" as="sourcePoint"/>
                        <mxPoint x="-148.63501363726527" y="-114.78964171839527" as="targetPoint"/>
                    </mxGeometry>
                </mxCell>
                <mxCell id="463" value="" style="group" parent="1" vertex="1" connectable="0">
                    <mxGeometry x="60" y="190" width="90" height="90" as="geometry"/>
                </mxCell>
                <mxCell id="398" value="" style="whiteSpace=wrap;html=1;aspect=fixed;" parent="463" vertex="1">
                    <mxGeometry width="90" height="90" as="geometry"/>
                </mxCell>
                <mxCell id="399" value="" style="ellipse;whiteSpace=wrap;html=1;aspect=fixed;fillColor=#60a917;fontColor=#ffffff;strokeColor=#2D7600;" parent="463" vertex="1">
                    <mxGeometry x="15" y="50" width="20" height="20" as="geometry"/>
                </mxCell>
                <mxCell id="400" value="" style="ellipse;whiteSpace=wrap;html=1;aspect=fixed;fillColor=#1ba1e2;fontColor=#ffffff;strokeColor=#006EAF;" parent="463" vertex="1">
                    <mxGeometry x="55" y="50" width="20" height="20" as="geometry"/>
                </mxCell>
                <mxCell id="401" value="" style="ellipse;whiteSpace=wrap;html=1;aspect=fixed;" parent="463" vertex="1">
                    <mxGeometry x="35" y="20" width="20" height="20" as="geometry"/>
                </mxCell>
                <mxCell id="402" value="" style="endArrow=oval;html=1;endFill=1;endSize=5;startSize=5;" parent="463" source="401" target="399" edge="1">
                    <mxGeometry width="50" height="50" relative="1" as="geometry">
                        <mxPoint x="-145" y="-175" as="sourcePoint"/>
                        <mxPoint x="-115" y="-100" as="targetPoint"/>
                    </mxGeometry>
                </mxCell>
                <mxCell id="403" value="" style="endArrow=oval;html=1;endFill=1;endSize=5;startSize=5;" parent="463" source="401" target="400" edge="1">
                    <mxGeometry width="50" height="50" relative="1" as="geometry">
                        <mxPoint x="-101.44568508158966" y="-155.3048314603003" as="sourcePoint"/>
                        <mxPoint x="-148.63501363726527" y="-114.78964171839527" as="targetPoint"/>
                    </mxGeometry>
                </mxCell>
                <mxCell id="464" value="" style="group" parent="1" vertex="1" connectable="0">
                    <mxGeometry x="230" y="90" width="90" height="90" as="geometry"/>
                </mxCell>
                <mxCell id="352" value="" style="whiteSpace=wrap;html=1;aspect=fixed;" parent="464" vertex="1">
                    <mxGeometry width="90" height="90" as="geometry"/>
                </mxCell>
                <mxCell id="296" value="" style="ellipse;whiteSpace=wrap;html=1;aspect=fixed;fillColor=#60a917;fontColor=#ffffff;strokeColor=#2D7600;" parent="464" vertex="1">
                    <mxGeometry x="35" y="65" width="20" height="20" as="geometry"/>
                </mxCell>
                <mxCell id="303" style="edgeStyle=none;html=1;fontFamily=Courier New;startArrow=none;startFill=0;endArrow=oval;endFill=1;endSize=5;strokeWidth=1;startSize=5;" parent="464" source="298" target="296" edge="1">
                    <mxGeometry relative="1" as="geometry"/>
                </mxCell>
                <mxCell id="298" value="" style="ellipse;whiteSpace=wrap;html=1;aspect=fixed;fillColor=#1ba1e2;fontColor=#ffffff;strokeColor=#006EAF;" parent="464" vertex="1">
                    <mxGeometry x="35" y="35" width="20" height="20" as="geometry"/>
                </mxCell>
                <mxCell id="299" value="" style="ellipse;whiteSpace=wrap;html=1;aspect=fixed;" parent="464" vertex="1">
                    <mxGeometry x="35" y="5" width="20" height="20" as="geometry"/>
                </mxCell>
                <mxCell id="301" value="" style="endArrow=oval;html=1;endFill=1;endSize=5;startSize=5;" parent="464" source="299" target="298" edge="1">
                    <mxGeometry width="50" height="50" relative="1" as="geometry">
                        <mxPoint x="-101.44568508158966" y="-170.3048314603003" as="sourcePoint"/>
                        <mxPoint x="-148.63501363726527" y="-129.78964171839527" as="targetPoint"/>
                    </mxGeometry>
                </mxCell>
                <mxCell id="465" value="" style="group" parent="1" vertex="1" connectable="0">
                    <mxGeometry x="230" y="190" width="90" height="90" as="geometry"/>
                </mxCell>
                <mxCell id="406" value="" style="whiteSpace=wrap;html=1;aspect=fixed;" parent="465" vertex="1">
                    <mxGeometry width="90" height="90" as="geometry"/>
                </mxCell>
                <mxCell id="407" value="" style="ellipse;whiteSpace=wrap;html=1;aspect=fixed;fillColor=#1ba1e2;fontColor=#ffffff;strokeColor=#006EAF;" parent="465" vertex="1">
                    <mxGeometry x="35" y="65" width="20" height="20" as="geometry"/>
                </mxCell>
                <mxCell id="408" style="edgeStyle=none;html=1;fontFamily=Courier New;startArrow=none;startFill=0;endArrow=oval;endFill=1;endSize=5;strokeWidth=1;startSize=5;" parent="465" source="409" target="407" edge="1">
                    <mxGeometry relative="1" as="geometry"/>
                </mxCell>
                <mxCell id="409" value="" style="ellipse;whiteSpace=wrap;html=1;aspect=fixed;fillColor=#60a917;fontColor=#ffffff;strokeColor=#2D7600;" parent="465" vertex="1">
                    <mxGeometry x="35" y="35" width="20" height="20" as="geometry"/>
                </mxCell>
                <mxCell id="410" value="" style="ellipse;whiteSpace=wrap;html=1;aspect=fixed;" parent="465" vertex="1">
                    <mxGeometry x="35" y="5" width="20" height="20" as="geometry"/>
                </mxCell>
                <mxCell id="411" value="" style="endArrow=oval;html=1;endFill=1;endSize=5;startSize=5;" parent="465" source="410" target="409" edge="1">
                    <mxGeometry width="50" height="50" relative="1" as="geometry">
                        <mxPoint x="-101.44568508158966" y="-170.3048314603003" as="sourcePoint"/>
                        <mxPoint x="-148.63501363726527" y="-129.78964171839527" as="targetPoint"/>
                    </mxGeometry>
                </mxCell>
                <mxCell id="466" value="" style="group" parent="1" vertex="1" connectable="0">
                    <mxGeometry x="94" y="440" width="90" height="90" as="geometry"/>
                </mxCell>
                <mxCell id="427" value="" style="whiteSpace=wrap;html=1;aspect=fixed;" parent="466" vertex="1">
                    <mxGeometry width="90" height="90" as="geometry"/>
                </mxCell>
                <mxCell id="428" value="" style="ellipse;whiteSpace=wrap;html=1;aspect=fixed;fillColor=#60a917;fontColor=#ffffff;strokeColor=#2D7600;" parent="466" vertex="1">
                    <mxGeometry x="15" y="65" width="20" height="20" as="geometry"/>
                </mxCell>
                <mxCell id="429" style="edgeStyle=none;html=1;fontFamily=Courier New;startArrow=none;startFill=0;endArrow=oval;endFill=1;endSize=5;strokeWidth=1;startSize=5;" parent="466" source="430" target="428" edge="1">
                    <mxGeometry relative="1" as="geometry"/>
                </mxCell>
                <mxCell id="430" value="" style="ellipse;whiteSpace=wrap;html=1;aspect=fixed;fillColor=#1ba1e2;fontColor=#ffffff;strokeColor=#006EAF;" parent="466" vertex="1">
                    <mxGeometry x="15" y="35" width="20" height="20" as="geometry"/>
                </mxCell>
                <mxCell id="431" value="" style="ellipse;whiteSpace=wrap;html=1;aspect=fixed;" parent="466" vertex="1">
                    <mxGeometry x="35" y="5" width="20" height="20" as="geometry"/>
                </mxCell>
                <mxCell id="432" value="" style="endArrow=oval;html=1;endFill=1;endSize=5;startSize=5;" parent="466" source="431" target="430" edge="1">
                    <mxGeometry width="50" height="50" relative="1" as="geometry">
                        <mxPoint x="-101.44568508158966" y="-170.3048314603003" as="sourcePoint"/>
                        <mxPoint x="-148.63501363726527" y="-129.78964171839527" as="targetPoint"/>
                    </mxGeometry>
                </mxCell>
                <mxCell id="440" value="" style="ellipse;whiteSpace=wrap;html=1;aspect=fixed;fillColor=#1ba1e2;fontColor=#ffffff;strokeColor=#006EAF;" parent="466" vertex="1">
                    <mxGeometry x="55" y="65" width="20" height="20" as="geometry"/>
                </mxCell>
                <mxCell id="441" style="edgeStyle=none;html=1;fontFamily=Courier New;startArrow=none;startFill=0;endArrow=oval;endFill=1;endSize=5;strokeWidth=1;startSize=5;" parent="466" source="442" target="440" edge="1">
                    <mxGeometry relative="1" as="geometry"/>
                </mxCell>
                <mxCell id="442" value="" style="ellipse;whiteSpace=wrap;html=1;aspect=fixed;fillColor=#60a917;fontColor=#ffffff;strokeColor=#2D7600;" parent="466" vertex="1">
                    <mxGeometry x="55" y="35" width="20" height="20" as="geometry"/>
                </mxCell>
                <mxCell id="446" style="edgeStyle=none;html=1;fontFamily=Helvetica;fontSize=10;startArrow=none;startFill=0;endArrow=oval;endFill=1;endSize=5;strokeWidth=1;startSize=5;" parent="466" source="431" target="442" edge="1">
                    <mxGeometry relative="1" as="geometry"/>
                </mxCell>
                <mxCell id="481" value="c" style="whiteSpace=wrap;html=1;" parent="466" vertex="1">
                    <mxGeometry x="70" width="20" height="20" as="geometry"/>
                </mxCell>
                <mxCell id="467" value="" style="group" parent="1" vertex="1" connectable="0">
                    <mxGeometry x="195" y="440" width="90" height="90" as="geometry"/>
                </mxCell>
                <mxCell id="452" value="" style="whiteSpace=wrap;html=1;aspect=fixed;" parent="467" vertex="1">
                    <mxGeometry width="90" height="90" as="geometry"/>
                </mxCell>
                <mxCell id="453" value="" style="ellipse;whiteSpace=wrap;html=1;aspect=fixed;fillColor=#60a917;fontColor=#ffffff;strokeColor=#2D7600;" parent="467" vertex="1">
                    <mxGeometry x="15" y="50" width="20" height="20" as="geometry"/>
                </mxCell>
                <mxCell id="459" style="edgeStyle=none;html=1;fontFamily=Helvetica;fontSize=10;startArrow=none;startFill=0;endArrow=oval;endFill=1;endSize=5;strokeWidth=1;startSize=5;" parent="467" source="454" target="453" edge="1">
                    <mxGeometry relative="1" as="geometry">
                        <Array as="points">
                            <mxPoint x="50" y="50"/>
                        </Array>
                    </mxGeometry>
                </mxCell>
                <mxCell id="454" value="" style="ellipse;whiteSpace=wrap;html=1;aspect=fixed;fillColor=#1ba1e2;fontColor=#ffffff;strokeColor=#006EAF;" parent="467" vertex="1">
                    <mxGeometry x="55" y="50" width="20" height="20" as="geometry"/>
                </mxCell>
                <mxCell id="455" value="" style="ellipse;whiteSpace=wrap;html=1;aspect=fixed;" parent="467" vertex="1">
                    <mxGeometry x="35" y="20" width="20" height="20" as="geometry"/>
                </mxCell>
                <mxCell id="456" value="" style="endArrow=oval;html=1;endFill=1;endSize=5;startSize=5;" parent="467" source="455" target="453" edge="1">
                    <mxGeometry width="50" height="50" relative="1" as="geometry">
                        <mxPoint x="-145" y="-175" as="sourcePoint"/>
                        <mxPoint x="-115" y="-100" as="targetPoint"/>
                    </mxGeometry>
                </mxCell>
                <mxCell id="457" value="" style="endArrow=oval;html=1;endFill=1;endSize=5;startSize=5;" parent="467" source="455" target="454" edge="1">
                    <mxGeometry width="50" height="50" relative="1" as="geometry">
                        <mxPoint x="-101.44568508158966" y="-155.3048314603003" as="sourcePoint"/>
                        <mxPoint x="-148.63501363726527" y="-114.78964171839527" as="targetPoint"/>
                    </mxGeometry>
                </mxCell>
                <mxCell id="458" style="edgeStyle=none;html=1;fontFamily=Helvetica;fontSize=10;startArrow=none;startFill=0;endArrow=oval;endFill=1;endSize=5;strokeWidth=1;startSize=5;" parent="467" source="453" target="454" edge="1">
                    <mxGeometry relative="1" as="geometry">
                        <Array as="points">
                            <mxPoint x="40" y="70"/>
                        </Array>
                    </mxGeometry>
                </mxCell>
                <mxCell id="482" value="d" style="whiteSpace=wrap;html=1;" parent="467" vertex="1">
                    <mxGeometry x="70" width="20" height="20" as="geometry"/>
                </mxCell>
                <mxCell id="468" value="" style="group" parent="1" vertex="1" connectable="0">
                    <mxGeometry x="196.5" y="340" width="90" height="90" as="geometry"/>
                </mxCell>
                <mxCell id="420" value="" style="whiteSpace=wrap;html=1;aspect=fixed;" parent="468" vertex="1">
                    <mxGeometry width="90" height="90" as="geometry"/>
                </mxCell>
                <mxCell id="421" value="" style="ellipse;whiteSpace=wrap;html=1;aspect=fixed;fillColor=#1ba1e2;fontColor=#ffffff;strokeColor=#006EAF;" parent="468" vertex="1">
                    <mxGeometry x="35" y="65" width="20" height="20" as="geometry"/>
                </mxCell>
                <mxCell id="422" style="edgeStyle=none;html=1;fontFamily=Courier New;startArrow=none;startFill=0;endArrow=oval;endFill=1;endSize=5;strokeWidth=1;startSize=5;" parent="468" source="423" target="421" edge="1">
                    <mxGeometry relative="1" as="geometry"/>
                </mxCell>
                <mxCell id="423" value="" style="ellipse;whiteSpace=wrap;html=1;aspect=fixed;fillColor=#60a917;fontColor=#ffffff;strokeColor=#2D7600;" parent="468" vertex="1">
                    <mxGeometry x="35" y="35" width="20" height="20" as="geometry"/>
                </mxCell>
                <mxCell id="424" value="" style="ellipse;whiteSpace=wrap;html=1;aspect=fixed;" parent="468" vertex="1">
                    <mxGeometry x="35" y="5" width="20" height="20" as="geometry"/>
                </mxCell>
                <mxCell id="425" value="" style="endArrow=oval;html=1;endFill=1;endSize=5;startSize=5;" parent="468" source="424" target="423" edge="1">
                    <mxGeometry width="50" height="50" relative="1" as="geometry">
                        <mxPoint x="-101.44568508158966" y="-170.3048314603003" as="sourcePoint"/>
                        <mxPoint x="-148.63501363726527" y="-129.78964171839527" as="targetPoint"/>
                    </mxGeometry>
                </mxCell>
                <mxCell id="480" value="b" style="whiteSpace=wrap;html=1;" parent="468" vertex="1">
                    <mxGeometry x="70" width="20" height="20" as="geometry"/>
                </mxCell>
                <mxCell id="469" value="" style="group" parent="1" vertex="1" connectable="0">
                    <mxGeometry x="94" y="340" width="90" height="90" as="geometry"/>
                </mxCell>
                <mxCell id="413" value="" style="whiteSpace=wrap;html=1;aspect=fixed;" parent="469" vertex="1">
                    <mxGeometry width="90" height="90" as="geometry"/>
                </mxCell>
                <mxCell id="414" value="" style="ellipse;whiteSpace=wrap;html=1;aspect=fixed;fillColor=#60a917;fontColor=#ffffff;strokeColor=#2D7600;" parent="469" vertex="1">
                    <mxGeometry x="35" y="65" width="20" height="20" as="geometry"/>
                </mxCell>
                <mxCell id="415" style="edgeStyle=none;html=1;fontFamily=Courier New;startArrow=none;startFill=0;endArrow=oval;endFill=1;endSize=5;strokeWidth=1;startSize=5;" parent="469" source="416" target="414" edge="1">
                    <mxGeometry relative="1" as="geometry"/>
                </mxCell>
                <mxCell id="416" value="" style="ellipse;whiteSpace=wrap;html=1;aspect=fixed;fillColor=#1ba1e2;fontColor=#ffffff;strokeColor=#006EAF;" parent="469" vertex="1">
                    <mxGeometry x="35" y="35" width="20" height="20" as="geometry"/>
                </mxCell>
                <mxCell id="417" value="" style="ellipse;whiteSpace=wrap;html=1;aspect=fixed;" parent="469" vertex="1">
                    <mxGeometry x="35" y="5" width="20" height="20" as="geometry"/>
                </mxCell>
                <mxCell id="418" value="" style="endArrow=oval;html=1;endFill=1;endSize=5;startSize=5;" parent="469" source="417" target="416" edge="1">
                    <mxGeometry width="50" height="50" relative="1" as="geometry">
                        <mxPoint x="-101.44568508158966" y="-170.3048314603003" as="sourcePoint"/>
                        <mxPoint x="-148.63501363726527" y="-129.78964171839527" as="targetPoint"/>
                    </mxGeometry>
                </mxCell>
                <mxCell id="471" value="a" style="whiteSpace=wrap;html=1;" parent="469" vertex="1">
                    <mxGeometry x="70" width="20" height="20" as="geometry"/>
                </mxCell>
                <mxCell id="484" value="" style="endArrow=none;html=1;endSize=4;strokeWidth=1;" parent="1" edge="1">
                    <mxGeometry width="50" height="50" relative="1" as="geometry">
                        <mxPoint x="320" y="80" as="sourcePoint"/>
                        <mxPoint x="60" y="80" as="targetPoint"/>
                    </mxGeometry>
                </mxCell>
                <mxCell id="485" value="Concurrent operations" style="text;html=1;strokeColor=none;fillColor=none;align=center;verticalAlign=middle;whiteSpace=wrap;rounded=0;" parent="1" vertex="1">
                    <mxGeometry x="110" y="50" width="160" height="30" as="geometry"/>
                </mxCell>
                <mxCell id="487" value="" style="rounded=0;whiteSpace=wrap;html=1;fillColor=none;strokeColor=none;" vertex="1" parent="1">
                    <mxGeometry x="40" width="300" height="600" as="geometry"/>
                </mxCell>
            </root>
        </mxGraphModel>
    </diagram>
</mxfile>